<svg width="16" height="16" viewBox="0 0 16 16" fill="none" xmlns="http://www.w3.org/2000/svg">
<mask id="mask0_85_33159" style="mask-type:alpha" maskUnits="userSpaceOnUse" x="0" y="0" width="16" height="16">
<rect width="16" height="16" fill="white"/>
</mask>
<g mask="url(#mask0_85_33159)">
<path d="M8.00003 1C4.14302 1 1 4.14301 1 8.00002C1 11.857 4.14302 15 8.00003 15C11.857 15 15 11.857 15 8.00002C15 4.14301 11.857 1 8.00003 1ZM11.0451 10.4991C10.947 10.6671 10.7721 10.758 10.59 10.758C10.4991 10.758 10.408 10.737 10.324 10.681L8.15403 9.38602C7.61502 9.06403 7.21602 8.35702 7.21602 7.73402V4.86401C7.21602 4.577 7.45402 4.33901 7.74102 4.33901C8.02803 4.33901 8.26602 4.577 8.26602 4.86401V7.73402C8.26602 7.98602 8.47602 8.35702 8.69303 8.48302L10.863 9.77803C11.115 9.92503 11.199 10.2471 11.0451 10.4991Z" fill="white"/>
</g>
</svg>
