<svg width="15" height="16" viewBox="0 0 15 16" fill="none" xmlns="http://www.w3.org/2000/svg">
<path d="M10.3335 1.33301V8.66634M13.6669 6.53301V3.46634C13.6669 2.7196 13.6669 2.34624 13.5215 2.06102C13.3937 1.81014 13.1897 1.60616 12.9389 1.47833C12.6536 1.33301 12.2803 1.33301 11.5335 1.33301H4.41221C3.43788 1.33301 2.95072 1.33301 2.55725 1.5113C2.21046 1.66843 1.91573 1.92129 1.70769 2.24015C1.47164 2.60194 1.39757 3.08343 1.24942 4.04642L0.900698 6.31309C0.705294 7.58322 0.607592 8.21828 0.796067 8.71242C0.961493 9.14614 1.27263 9.5088 1.67615 9.73825C2.13589 9.99968 2.77842 9.99967 4.06349 9.99967H4.6002C4.97357 9.99967 5.16025 9.99967 5.30286 10.0723C5.4283 10.1363 5.53029 10.2382 5.5942 10.3637C5.66686 10.5063 5.66686 10.693 5.66686 11.0663V13.0224C5.66686 13.9303 6.40286 14.6663 7.31076 14.6663C7.52731 14.6663 7.72354 14.5388 7.81149 14.3409L10.052 9.29979C10.1539 9.07051 10.2049 8.95586 10.2854 8.8718C10.3566 8.79749 10.444 8.74068 10.5408 8.7058C10.6504 8.66634 10.7758 8.66634 11.0267 8.66634H11.5335C12.2803 8.66634 12.6536 8.66634 12.9389 8.52102C13.1897 8.39319 13.3937 8.18921 13.5215 7.93833C13.6669 7.65311 13.6669 7.27974 13.6669 6.53301Z" stroke="#D92D20" stroke-linecap="round" stroke-linejoin="round"/>
</svg>
