<svg width="92" height="32" viewBox="0 0 92 32" fill="none" xmlns="http://www.w3.org/2000/svg">
<g clip-path="url(#clip0_148_21264)">
<path d="M15.6359 14.4502L11.8618 17.0729V19.9984L15.6359 17.3757L19.4085 19.9984V17.0729L15.6359 14.4502Z" fill="#FFA048"/>
<path d="M11.8618 21.9108V24.8363L15.6359 22.2136L19.4085 24.8363V21.9108L15.6359 19.2881L11.8618 21.9108Z" fill="#FFA048"/>
<path d="M11.8618 26.7487V29.6742L15.6359 27.0515L19.4085 29.6742V26.7487L15.6359 24.126L11.8618 26.7487Z" fill="#FFA048"/>
<path d="M19.4793 20.1102L15.6362 17.4436L11.7915 20.1102V17.0122L11.8229 16.9918L15.6362 14.3408L15.6754 14.3691L19.4793 17.0122V20.1102ZM11.9327 17.0859V19.8404L15.6362 17.2663L15.6754 17.2945L19.3382 19.8404V17.0859L15.6362 14.5118L11.9327 17.0859Z" fill="#1E344E"/>
<path d="M19.4793 24.9409L15.6362 22.2742L11.7915 24.9409V21.8491L11.8229 21.8287L15.6362 19.1777L15.6754 19.2044L19.4793 21.8491V24.9409ZM11.9327 21.9228V24.6758L15.6362 22.1017L15.6754 22.1299L19.3382 24.6758V21.9228L15.6362 19.3487L11.9327 21.9228Z" fill="#1E344E"/>
<path d="M19.4793 29.7831L15.6362 27.1164L11.7915 29.7831V26.6866L11.8229 26.6647L15.6362 24.0137L15.6754 24.0419L19.4793 26.6866V29.7831ZM11.9327 26.7603V29.5133L15.6362 26.9392L15.6754 26.9674L19.3382 29.5133V26.7603L15.6362 24.1862L11.9327 26.7603Z" fill="#1E344E"/>
<path d="M10.6245 6.0973C11.5477 4.98272 12.8049 4.19463 14.2104 3.84945C14.6937 3.73252 15.1892 3.67354 15.6865 3.67377C16.6576 3.68101 17.6152 3.90189 18.4914 4.32073C19.3675 4.73957 20.1408 5.3461 20.7563 6.0973L17.9327 1.33024C17.7687 1.04484 17.5552 0.790943 17.3022 0.580434C16.1163 -0.392115 14.3218 -0.142703 13.4465 1.33024L10.6245 6.0973Z" fill="#298DFE"/>
<path d="M26.4124 16.8612L23.1607 10.7734C21.7489 8.14277 19.4556 6.62747 17.0195 6.22433H17.0101C16.1469 6.05283 15.2584 6.05283 14.3952 6.22433C11.9559 6.6212 9.6532 8.13649 8.24615 10.7734L4.99438 16.8565L0.59595 25.0981C0.12634 25.9742 -0.0739384 26.9696 0.0202633 27.9592C0.509675 33.6894 8.45477 33.1828 8.45477 27.4275V26.2902V18.4235C8.45477 18.4141 8.45477 18.4032 8.45477 18.3937V18.4235C8.45477 14.6369 10.9379 11.4792 14.2399 10.7483C14.7196 10.6434 15.2092 10.5908 15.7003 10.5914C16.6668 10.5974 17.6215 10.8044 18.5038 11.1992C19.386 11.594 20.1765 12.168 20.825 12.8847C22.204 14.3989 22.9618 16.3771 22.9473 18.4251V26.2949V27.3459C22.9473 33.0745 30.8673 33.5467 31.3144 27.8385C31.4036 26.8359 31.1987 25.8291 30.7246 24.9412L26.4124 16.8612Z" fill="#298DFE"/>
<path d="M33.9702 31.4223V18.2223H37.3553V21.3893L37.1137 20.9297C37.4045 19.817 37.8839 19.0636 38.5522 18.6693C39.2802 18.2592 40.106 18.0548 40.9412 18.0779H41.7145V21.2152H40.5788C39.691 21.2152 38.9736 21.4855 38.4267 22.0262C37.8798 22.5668 37.6032 23.3292 37.5969 24.3132V31.4207L33.9702 31.4223Z" fill="#298DFE"/>
<path d="M42.4111 31.4227V18.2227H45.8041V21.4384L45.4417 20.9066C45.6352 19.8923 46.1026 19.143 46.8441 18.6588C47.639 18.159 48.5643 17.9062 49.5029 17.9325C50.5282 17.9123 51.5356 18.2033 52.3923 18.767C52.7868 19.0188 53.1276 19.346 53.3951 19.7299C53.6627 20.1137 53.8518 20.5467 53.9515 21.0039L52.9115 21.0996C53.3476 20.0204 53.9683 19.2225 54.7735 18.7059C55.6199 18.18 56.6008 17.9114 57.597 17.9325C58.4799 17.9153 59.3517 18.1318 60.1241 18.56C60.8496 18.974 61.4467 19.5804 61.8496 20.3121C62.2818 21.1181 62.498 22.0222 62.477 22.9365V31.4212H58.8519V23.7114C58.8636 23.2523 58.768 22.7968 58.5727 22.3812C58.3986 22.0228 58.1267 21.721 57.7884 21.5106C57.4156 21.2923 56.9888 21.1836 56.557 21.1968C56.1285 21.1866 55.7056 21.2952 55.3351 21.5106C54.9912 21.718 54.7145 22.0203 54.5382 22.3812C54.3421 22.7965 54.2465 23.2522 54.259 23.7114V31.4227H50.6307V23.7114C50.6429 23.2524 50.5478 22.7969 50.3531 22.3812C50.179 22.0228 49.9071 21.721 49.5688 21.5106C49.1927 21.3048 48.7708 21.1969 48.3421 21.1969C47.9134 21.1969 47.4915 21.3048 47.1154 21.5106C46.7711 21.7179 46.4939 22.0202 46.317 22.3812C46.1223 22.7969 46.0272 23.2524 46.0394 23.7114V31.4227H42.4111Z" fill="#298DFE"/>
<path d="M68.2449 26.8486C67.1792 26.8486 66.2726 26.6185 65.5249 26.1584C64.7777 25.7021 64.1839 25.033 63.8198 24.2368C63.4161 23.3325 63.2179 22.35 63.2394 21.36V13.36H66.866V21.0713C66.8557 21.5289 66.9598 21.9818 67.1688 22.389C67.3623 22.7609 67.6606 23.068 68.0268 23.2721C68.4158 23.4781 68.8494 23.5859 69.2896 23.5859C69.7298 23.5859 70.1633 23.4781 70.5523 23.2721C70.9132 23.0647 71.2072 22.7582 71.3994 22.389C71.6076 21.9815 71.7116 21.5288 71.7021 21.0713V13.3584H75.3272V26.5584H71.9437V23.9466L72.1366 24.527C71.869 25.272 71.3408 25.895 70.6496 26.2807C69.9096 26.6723 69.0818 26.8677 68.2449 26.8486Z" fill="#1E344E"/>
<path d="M76.2651 31.3928V13.3536H79.6502V15.8634L79.3365 15.1371C79.777 14.472 80.3918 13.9408 81.1138 13.6015C81.9194 13.2271 82.7997 13.0415 83.6879 13.0587C84.8871 13.0431 86.0672 13.3608 87.0965 13.9764C88.1047 14.5843 88.9377 15.4437 89.5138 16.4705C90.1166 17.535 90.4258 18.7406 90.4094 19.9638C90.4234 21.1817 90.119 22.3821 89.5263 23.4462C88.9572 24.471 88.1277 25.3276 87.1216 25.9293C86.0784 26.549 84.8838 26.8672 83.6706 26.8485C82.8089 26.8574 81.9545 26.6887 81.1608 26.3528C80.4222 26.0431 79.7826 25.537 79.3114 24.8893L79.8918 24.1411V31.3928H76.2651ZM83.2283 23.5842C83.8562 23.598 84.4759 23.439 85.0196 23.1246C85.5344 22.819 85.9529 22.375 86.2275 21.843C86.5258 21.2611 86.6756 20.6145 86.6636 19.9607C86.677 19.3097 86.5271 18.6658 86.2275 18.0877C85.9481 17.5593 85.5307 17.1164 85.0196 16.8062C84.4785 16.4856 83.8586 16.3226 83.2298 16.3356C82.6233 16.327 82.0262 16.486 81.5044 16.7952C80.9968 17.1023 80.5862 17.5466 80.32 18.0768C80.0422 18.6654 79.8981 19.3082 79.8981 19.9591C79.8981 20.61 80.0422 21.2528 80.32 21.8415C80.5857 22.3721 80.9963 22.8164 81.5044 23.123C82.0251 23.4336 82.622 23.5933 83.2283 23.5842Z" fill="#1E344E"/>
</g>
<defs>
<clipPath id="clip0_148_21264">
<rect width="92" height="32" fill="white"/>
</clipPath>
</defs>
</svg>
