<svg width="32" height="32" viewBox="0 0 32 32" fill="none" xmlns="http://www.w3.org/2000/svg">
<mask id="mask0_88_18096" style="mask-type:alpha" maskUnits="userSpaceOnUse" x="0" y="0" width="32" height="32">
<rect width="32" height="32" fill="white"/>
</mask>
<g mask="url(#mask0_88_18096)">
<path fill-rule="evenodd" clip-rule="evenodd" d="M8.39257 7.29137L8.14786 10.2891C8.09892 10.8642 8.55163 11.3413 9.1267 11.3413H27.8593C28.3732 11.3413 28.8015 10.9498 28.8382 10.4359C28.9973 8.27022 27.3455 6.5083 25.1798 6.5083H10.1423C10.0199 5.96993 9.77519 5.45604 9.39588 5.02779C8.78411 4.37931 7.92762 4 7.04665 4H4.91767C4.41602 4 4 4.41602 4 4.91767C4 5.41933 4.41602 5.83533 4.91767 5.83533H7.04665C7.42596 5.83533 7.78079 5.9944 8.03774 6.26358C8.29468 6.545 8.41704 6.91207 8.39257 7.29137ZM14.7062 27.8587C14.7062 29.0413 13.7475 30 12.5649 30C11.3823 30 10.4237 29.0413 10.4237 27.8587C10.4237 26.6762 11.3823 25.7175 12.5649 25.7175C13.7475 25.7175 14.7062 26.6762 14.7062 27.8587ZM24.4949 27.8587C24.4949 29.0413 23.5362 30 22.3536 30C21.1711 30 20.2124 29.0413 20.2124 27.8587C20.2124 26.6762 21.1711 25.7175 22.3536 25.7175C23.5362 25.7175 24.4949 26.6762 24.4949 27.8587ZM8.79671 13.1767H27.5661C28.1412 13.1767 28.5816 13.6539 28.5326 14.2167L28.1289 19.9307C27.9943 21.766 26.3792 23.271 24.5439 23.271H10.9379C8.84565 23.271 7.20608 21.4846 7.37739 19.3923L7.81787 14.0698C7.8668 13.5682 8.28282 13.1767 8.79671 13.1767Z" fill="white"/>
</g>
</svg>
