<svg width="16" height="16" viewBox="0 0 16 16" fill="none" xmlns="http://www.w3.org/2000/svg">
<mask id="mask0_85_33161" style="mask-type:alpha" maskUnits="userSpaceOnUse" x="0" y="0" width="16" height="16">
<rect width="16" height="16" fill="white"/>
</mask>
<g mask="url(#mask0_85_33161)">
<path d="M8.00003 1C4.14301 1 1 4.14301 1 8.00002C1 11.857 4.14301 15 8.00003 15C11.857 15 15 11.857 15 8.00002C15 4.14301 11.857 1 8.00003 1ZM11.346 6.39001L7.37702 10.359C7.27902 10.4571 7.14602 10.513 7.00602 10.513C6.86602 10.513 6.73302 10.4571 6.63502 10.359L4.65401 8.37802C4.45101 8.17502 4.45101 7.83902 4.65401 7.63602C4.85701 7.43301 5.19301 7.43301 5.39602 7.63602L7.00602 9.24602L10.6041 5.64801C10.807 5.44501 11.143 5.44501 11.346 5.64801C11.5491 5.85102 11.5491 6.18001 11.346 6.39001Z" fill="white"/>
</g>
</svg>
