<svg width="129" height="132" viewBox="0 0 129 132" fill="none" xmlns="http://www.w3.org/2000/svg">
<g clip-path="url(#clip0_148_21241)">
<path d="M65.6309 57.3418L50.5166 67.7494V79.3584L65.6309 68.9508L80.7388 79.3584V67.7494L65.6309 57.3418Z" fill="#FFA048"/>
<path d="M50.5166 86.9467V98.5557L65.6309 88.148L80.7388 98.5557V86.9467L65.6309 76.5391L50.5166 86.9467Z" fill="#FFA048"/>
<path d="M50.5166 106.143V117.752L65.6309 107.344L80.7388 117.752V106.143L65.6309 95.7354L50.5166 106.143Z" fill="#FFA048"/>
<path d="M81.0215 79.8002L65.6308 69.1996L50.2339 79.8002V67.5127L50.3532 67.4318L65.6245 56.9121L65.7879 57.0242L81.0215 67.5189V79.8064V79.8002ZM50.7993 67.8053V78.7295L65.6308 68.5149L65.7942 68.6269L80.4624 78.7295V67.8053L65.6308 57.5906L50.7993 67.8053V67.8053Z" fill="#1E344E"/>
<path d="M81.0215 98.9906L65.6308 88.39L50.2339 98.9906V86.7031L50.3532 86.6222L65.6245 76.1025L65.7879 76.2146L81.0215 86.7093V98.9968V98.9906ZM50.7993 86.9957V97.9199L65.6308 87.7053L65.7942 87.8173L80.4624 97.9199V86.9957L65.6308 76.781L50.7993 86.9957V86.9957Z" fill="#1E344E"/>
<path d="M81.0215 118.188L65.6308 107.587L50.2339 118.188V105.9L50.3532 105.819L65.6245 95.2998L65.7879 95.4118L81.0215 105.907V118.194V118.188ZM50.7993 106.193V117.117L65.6308 106.903L65.7942 107.015L80.4624 117.117V106.193L65.6308 95.9783L50.7993 106.193V106.193Z" fill="#1E344E"/>
<path d="M45.5601 24.1951C49.3104 19.7818 54.2856 16.601 59.9268 15.2814C61.8365 14.8145 63.8215 14.5842 65.8632 14.5842C73.9103 14.5842 81.147 18.2941 86.1663 24.2013L74.8651 5.28456C74.1553 4.08943 73.2884 3.09971 72.3084 2.3154C67.5593 -1.54389 60.3602 -0.554165 56.8675 5.28456L45.5663 24.2013L45.5601 24.1951Z" fill="#298DFE"/>
<path d="M108.787 66.9089L95.7648 42.751C90.1362 32.306 80.927 26.2992 71.1712 24.712C71.1586 24.712 71.1461 24.712 71.1335 24.7057C69.4311 24.3696 67.6847 24.1953 65.9007 24.1953C64.1166 24.1953 62.364 24.3696 60.6616 24.7057C50.8932 26.2806 41.6714 32.2936 36.0365 42.751L23.0204 66.8902L5.40596 99.5759C3.41459 103.261 2.77384 107.101 3.1005 110.948C5.06045 133.687 36.8783 131.676 36.8783 108.838V104.325V73.1086C36.8783 73.0651 36.8783 73.0277 36.8783 72.9842V73.1086C36.8783 58.0823 46.8225 45.5521 60.0522 42.6514C61.9431 42.2344 63.8967 42.0227 65.9007 42.0227C73.9101 42.0227 81.1657 45.5085 86.4236 51.1294C91.669 56.7503 94.923 64.5311 94.923 73.1149V104.338V108.514C94.923 131.247 126.64 133.121 128.431 110.463C128.739 106.572 128.073 102.694 126.062 98.9596L108.793 66.9089H108.787Z" fill="#298DFE"/>
</g>
<defs>
<clipPath id="clip0_148_21241">
<rect width="128" height="132" fill="white" transform="translate(0.5)"/>
</clipPath>
</defs>
</svg>
