<svg width="17" height="18" viewBox="0 0 17 18" fill="none" xmlns="http://www.w3.org/2000/svg">
<path d="M4.75 9H4.75833M8.5 9H8.50833M12.25 9H12.2583M8.5 16.5C12.6421 16.5 16 13.1421 16 9C16 4.85786 12.6421 1.5 8.5 1.5C4.35786 1.5 1 4.85786 1 9C1 9.99762 1.19478 10.9497 1.54839 11.8204C1.61606 11.9871 1.6499 12.0704 1.665 12.1377C1.67976 12.2036 1.68516 12.2524 1.68517 12.3199C1.68518 12.3889 1.67265 12.4641 1.64759 12.6145L1.15344 15.5794C1.10169 15.8898 1.07582 16.0451 1.12397 16.1573C1.16611 16.2556 1.2444 16.3339 1.34265 16.376C1.45491 16.4242 1.61015 16.3983 1.92063 16.3466L4.88554 15.8524C5.03591 15.8273 5.11109 15.8148 5.18011 15.8148C5.24763 15.8148 5.29638 15.8202 5.36227 15.835C5.42962 15.8501 5.51294 15.8839 5.67958 15.9516C6.55025 16.3052 7.50238 16.5 8.5 16.5ZM5.16667 9C5.16667 9.23012 4.98012 9.41667 4.75 9.41667C4.51988 9.41667 4.33333 9.23012 4.33333 9C4.33333 8.76988 4.51988 8.58333 4.75 8.58333C4.98012 8.58333 5.16667 8.76988 5.16667 9ZM8.91667 9C8.91667 9.23012 8.73012 9.41667 8.5 9.41667C8.26988 9.41667 8.08333 9.23012 8.08333 9C8.08333 8.76988 8.26988 8.58333 8.5 8.58333C8.73012 8.58333 8.91667 8.76988 8.91667 9ZM12.6667 9C12.6667 9.23012 12.4801 9.41667 12.25 9.41667C12.0199 9.41667 11.8333 9.23012 11.8333 9C11.8333 8.76988 12.0199 8.58333 12.25 8.58333C12.4801 8.58333 12.6667 8.76988 12.6667 9Z" stroke="white" stroke-width="1.66667" stroke-linecap="round" stroke-linejoin="round"/>
</svg>
