<svg width="16" height="16" viewBox="0 0 16 16" fill="none" xmlns="http://www.w3.org/2000/svg">
<mask id="mask0_85_33160" style="mask-type:alpha" maskUnits="userSpaceOnUse" x="0" y="0" width="16" height="16">
<rect width="16" height="16" fill="white"/>
</mask>
<g mask="url(#mask0_85_33160)">
<path d="M10.9379 1H5.06901C2.51975 1 1 2.519 1 5.06701V10.926C1 13.4811 2.51975 15 5.06901 15H10.9309C13.4802 15 15 13.4811 15 10.933V5.06701C15.0069 2.519 13.4872 1 10.9379 1ZM12.1005 9.47002C12.0725 9.53302 12.0375 9.58903 11.9884 9.63802L9.85939 11.766C9.75434 11.871 9.62127 11.92 9.48821 11.92C9.35514 11.92 9.22207 11.871 9.11702 11.766C8.91392 11.563 8.91392 11.227 9.11702 11.0241L10.3496 9.79203H4.39668C4.10954 9.79203 3.87142 9.55402 3.87142 9.26702C3.87142 8.98003 4.10954 8.74202 4.39668 8.74202H11.6173C11.6873 8.74202 11.7503 8.75602 11.8204 8.78402C11.9464 8.84002 12.0515 8.93803 12.1075 9.07102C12.1495 9.19702 12.1495 9.34402 12.1005 9.47002ZM11.6103 7.25102H4.39668C4.32664 7.25102 4.26361 7.23702 4.19358 7.20902C4.06752 7.15302 3.96247 7.05501 3.90643 6.92202C3.85041 6.79602 3.85041 6.64902 3.90643 6.52302C3.93445 6.46002 3.96947 6.40401 4.01849 6.35502L6.14755 4.22701C6.35065 4.02401 6.68682 4.02401 6.88991 4.22701C7.09302 4.43 7.09302 4.76601 6.88991 4.96901L5.66431 6.20101H11.6173C11.9044 6.20101 12.1426 6.43902 12.1426 6.72602C12.1426 7.01301 11.9044 7.25102 11.6103 7.25102Z" fill="white"/>
</g>
</svg>
