<svg width="33" height="32" viewBox="0 0 33 32" fill="none" xmlns="http://www.w3.org/2000/svg">
<g clip-path="url(#clip0_18_1150)">
<rect width="33" height="32" rx="16" fill="#F4EBFF"/>
<g filter="url(#filter0_d_18_1150)">
<mask id="mask0_18_1150" style="mask-type:luminance" maskUnits="userSpaceOnUse" x="4" y="4" width="25" height="24">
<path d="M28.5 16C28.5 9.37258 23.1274 4 16.5 4C9.87258 4 4.5 9.37258 4.5 16C4.5 22.6274 9.87258 28 16.5 28C23.1274 28 28.5 22.6274 28.5 16Z" fill="white"/>
</mask>
<g mask="url(#mask0_18_1150)">
<path d="M28.5 16C28.5 9.37258 23.1274 4 16.5 4C9.87258 4 4.5 9.37258 4.5 16C4.5 22.6274 9.87258 28 16.5 28C23.1274 28 28.5 22.6274 28.5 16Z" fill="#D4E8FF"/>
<path d="M28.5 16C28.5 9.37258 23.1274 4 16.5 4C9.87258 4 4.5 9.37258 4.5 16C4.5 22.6274 9.87258 28 16.5 28C23.1274 28 28.5 22.6274 28.5 16Z" fill="#D4E8FF"/>
<path d="M16.5 20C18.7091 20 20.5 18.2091 20.5 16C20.5 13.7909 18.7091 12 16.5 12C14.2909 12 12.5 13.7909 12.5 16C12.5 18.2091 14.2909 20 16.5 20Z" fill="#298DFE"/>
</g>
</g>
</g>
<defs>
<filter id="filter0_d_18_1150" x="4.5" y="4" width="24" height="24" filterUnits="userSpaceOnUse" color-interpolation-filters="sRGB">
<feFlood flood-opacity="0" result="BackgroundImageFix"/>
<feColorMatrix in="SourceAlpha" type="matrix" values="0 0 0 0 0 0 0 0 0 0 0 0 0 0 0 0 0 0 127 0" result="hardAlpha"/>
<feOffset/>
<feColorMatrix type="matrix" values="0 0 0 0 0.956863 0 0 0 0 0.921569 0 0 0 0 1 0 0 0 1 0"/>
<feBlend mode="normal" in2="BackgroundImageFix" result="effect1_dropShadow_18_1150"/>
<feBlend mode="normal" in="SourceGraphic" in2="effect1_dropShadow_18_1150" result="shape"/>
</filter>
<clipPath id="clip0_18_1150">
<rect width="33" height="32" fill="white"/>
</clipPath>
</defs>
</svg>
