<svg width="16" height="16" viewBox="0 0 16 16" fill="none" xmlns="http://www.w3.org/2000/svg">
<path d="M4.66683 14.6663V7.33301M1.3335 8.66634V13.333C1.3335 14.0694 1.93045 14.6663 2.66683 14.6663H11.6177C12.6048 14.6663 13.4443 13.9461 13.5944 12.9705L14.3124 8.30379C14.4987 7.09227 13.5614 5.99967 12.3356 5.99967H10.0002C9.63197 5.99967 9.3335 5.7012 9.3335 5.33301V2.9769C9.3335 2.069 8.5975 1.33301 7.6896 1.33301C7.47305 1.33301 7.27682 1.46054 7.18887 1.65842L4.84279 6.9371C4.73579 7.17785 4.49704 7.33301 4.23358 7.33301H2.66683C1.93045 7.33301 1.3335 7.92996 1.3335 8.66634Z" stroke="#298DFE" stroke-linecap="round" stroke-linejoin="round"/>
</svg>
