<svg width="32" height="32" viewBox="0 0 32 32" fill="none" xmlns="http://www.w3.org/2000/svg">
<mask id="mask0_85_18093" style="mask-type:alpha" maskUnits="userSpaceOnUse" x="0" y="0" width="32" height="32">
<rect width="32" height="32" fill="white"/>
</mask>
<g mask="url(#mask0_85_18093)">
<path d="M26.8531 13.05C25.9817 12.0881 24.6682 11.5292 22.8475 11.3342V10.3463C22.8475 8.56551 22.0932 6.84971 20.7667 5.65385C19.4271 4.432 17.6845 3.86006 15.8768 4.02904C12.7686 4.32801 10.1546 7.33065 10.1546 10.5803V11.3342C8.33384 11.5292 7.02033 12.0881 6.14899 13.05C4.8875 14.4538 4.92652 16.3256 5.06957 17.6254L5.97993 24.8656C6.25303 27.4003 7.28043 30 12.8726 30H20.1294C25.7216 30 26.749 27.4003 27.0221 24.8785L27.9324 17.6124C28.0755 16.3256 28.1016 14.4538 26.8531 13.05ZM16.0589 5.83583C17.3593 5.71885 18.5948 6.1218 19.5572 6.9927C20.5066 7.8506 21.0398 9.07245 21.0398 10.3463V11.2562H11.9623V10.5803C11.9623 8.26654 13.874 6.0438 16.0589 5.83583ZM11.8452 18.4964H11.8322C11.1169 18.4964 10.5317 17.9114 10.5317 17.1964C10.5317 16.4816 11.1169 15.8966 11.8322 15.8966C12.5605 15.8966 13.1457 16.4816 13.1457 17.1964C13.1457 17.9114 12.5605 18.4964 11.8452 18.4964ZM20.9487 18.4964H20.9358C20.2205 18.4964 19.6353 17.9114 19.6353 17.1964C19.6353 16.4816 20.2205 15.8966 20.9358 15.8966C21.6641 15.8966 22.2493 16.4816 22.2493 17.1964C22.2493 17.9114 21.6641 18.4964 20.9487 18.4964Z" fill="white"/>
</g>
</svg>
