<?xml version="1.0" encoding="utf-8"?>
<!-- Generator: Adobe Illustrator 26.0.3, SVG Export Plug-In . SVG Version: 6.00 Build 0)  -->
<svg version="1.1" id="Layer_1" xmlns="http://www.w3.org/2000/svg" xmlns:xlink="http://www.w3.org/1999/xlink" x="0px" y="0px"
	 viewBox="0 0 30 30" style="enable-background:new 0 0 30 30;" xml:space="preserve">
<style type="text/css">
	.st0{opacity:0.3;fill:#DC6803;}
	.st1{fill:#DC6803;}
</style>
<g>
	<polygon class="st0" points="15,3.1 29,26 1.1,26 	"/>
	<path class="st1" d="M26,28.3H4c-1.5,0-2.3,0-3-0.5c-0.6-0.4-1-1.1-1.1-1.9c-0.1-0.9,0.3-1.6,1-2.8L12,4.2l0,0
		c0.7-1.3,1.1-1.9,1.9-2.3c0.7-0.3,1.5-0.3,2.2,0c0.8,0.4,1.2,1,1.9,2.3l11,18.9c0.7,1.3,1.1,1.9,1,2.8c-0.1,0.8-0.5,1.4-1.1,1.9
		C28.2,28.3,27.4,28.3,26,28.3z M2.7,25.6c0.3,0,0.8,0,1.3,0H26c0.5,0,1.1,0,1.3,0c-0.1-0.3-0.4-0.7-0.6-1.2l-11-18.9
		c-0.3-0.4-0.5-0.9-0.7-1.1c-0.2,0.2-0.4,0.7-0.7,1.1l-11,18.9C3.1,24.9,2.8,25.4,2.7,25.6z M15,23.7c-0.7,0-1.3-0.6-1.3-1.3
		c0-0.7,0.6-1.3,1.3-1.3h0c0.7,0,1.3,0.6,1.3,1.3C16.3,23.1,15.7,23.7,15,23.7z M15,18.3c-0.7,0-1.3-0.6-1.3-1.3v-5.3
		c0-0.7,0.6-1.3,1.3-1.3c0.7,0,1.3,0.6,1.3,1.3V17C16.3,17.7,15.7,18.3,15,18.3z"/>
</g>
</svg>
